<svg width="28" height="32" viewBox="0 0 28 32" fill="none" xmlns="http://www.w3.org/2000/svg">
<g clip-path="url(#clip0)">
<path d="M15.9405 27.8188L14.5662 29.2063C13.9843 29.7938 13.0433 29.7938 12.4676 29.2063L0.433331 17.0625C-0.148574 16.475 -0.148574 15.525 0.433331 14.9438L12.4676 2.79377C13.0495 2.20627 13.9905 2.20627 14.5662 2.79377L15.9405 4.18127C16.5286 4.77502 16.5162 5.74377 15.9157 6.32502L8.45619 13.5H26.2476C27.0709 13.5 27.7333 14.1688 27.7333 15V17C27.7333 17.8313 27.0709 18.5 26.2476 18.5H8.45619L15.9157 25.675C16.5224 26.2563 16.5348 27.225 15.9405 27.8188Z" fill="white"/>
</g>
<defs>
<clipPath id="clip0">
<rect width="27.7333" height="32" fill="white"/>
</clipPath>
</defs>
</svg>
