<svg width="28" height="32" viewBox="0 0 28 32" fill="none" xmlns="http://www.w3.org/2000/svg">
<g clip-path="url(#clip0)">
<path d="M11.7929 4.18122L13.1672 2.79372C13.7491 2.20623 14.69 2.20623 15.2657 2.79372L27.3 14.9375C27.8819 15.525 27.8819 16.475 27.3 17.0562L15.2657 29.2062C14.6838 29.7937 13.7429 29.7937 13.1672 29.2062L11.7929 27.8187C11.2048 27.225 11.2172 26.2562 11.8176 25.675L19.2772 18.5L1.48573 18.5C0.662395 18.5 1.2477e-05 17.8312 1.25497e-05 17L1.27246e-05 15C1.27972e-05 14.1687 0.662395 13.5 1.48573 13.5L19.2772 13.5L11.8176 6.32497C11.211 5.74373 11.1986 4.77497 11.7929 4.18122Z" fill="white"/>
</g>
<defs>
<clipPath id="clip0">
<rect width="27.7333" height="32" fill="white" transform="translate(27.7333 32) rotate(-180)"/>
</clipPath>
</defs>
</svg>
