<svg width="28" height="32" viewBox="0 0 28 32" fill="none" xmlns="http://www.w3.org/2000/svg">
<path d="M1 8.25H27C27.5523 8.25 28 7.80231 28 7.25V4.75C28 4.19769 27.5523 3.75 27 3.75H1C0.447688 3.75 0 4.19769 0 4.75V7.25C0 7.80231 0.447688 8.25 1 8.25ZM1 18.25H27C27.5523 18.25 28 17.8023 28 17.25V14.75C28 14.1977 27.5523 13.75 27 13.75H1C0.447688 13.75 0 14.1977 0 14.75V17.25C0 17.8023 0.447688 18.25 1 18.25ZM1 28.25H27C27.5523 28.25 28 27.8023 28 27.25V24.75C28 24.1977 27.5523 23.75 27 23.75H1C0.447688 23.75 0 24.1977 0 24.75V27.25C0 27.8023 0.447688 28.25 1 28.25Z" fill="white"/>
</svg>
