<svg xmlns="http://www.w3.org/2000/svg" viewBox="0 0 161.24 27"><defs><style>.cls-1{fill:#a5ffd6;}.cls-2{fill:#fcba04;}.cls-3{fill:#fff;}</style></defs><title>Ativo 1</title><g id="Camada_2" data-name="Camada 2"><g id="Camada_1-2" data-name="Camada 1"><path class="cls-1" d="M5.24,25.72a9.49,9.49,0,0,1-3.85-3.54A9.65,9.65,0,0,1,0,17a9.53,9.53,0,0,1,5.24-8.7A11.92,11.92,0,0,1,10.8,7.06a10.83,10.83,0,0,1,5.35,1.27A7.64,7.64,0,0,1,19.48,12l-4.36,2.34a4.76,4.76,0,0,0-4.36-2.67A4.92,4.92,0,0,0,7.13,13.1,5.31,5.31,0,0,0,5.69,17,5.3,5.3,0,0,0,7.13,21a4.92,4.92,0,0,0,3.63,1.44,4.72,4.72,0,0,0,4.36-2.66l4.36,2.37a7.74,7.74,0,0,1-3.33,3.6A10.63,10.63,0,0,1,10.8,27,11.93,11.93,0,0,1,5.24,25.72Z"/><path class="cls-1" d="M37.44,9.2q2.41,2.15,2.41,6.46V26.71H34.6V24.3Q33,27,28.69,27a9.06,9.06,0,0,1-3.87-.76,5.81,5.81,0,0,1-2.5-2.08,5.42,5.42,0,0,1-.86-3,5,5,0,0,1,2-4.25q2-1.54,6.28-1.54h4.47a3.59,3.59,0,0,0-1.12-2.83,4.91,4.91,0,0,0-3.35-1,9.62,9.62,0,0,0-3,.49,8,8,0,0,0-2.54,1.31l-2-3.92A12,12,0,0,1,26,7.67a17,17,0,0,1,4.56-.61Q35,7.06,37.44,9.2ZM32.65,22.55a3.62,3.62,0,0,0,1.59-2v-2H30.38c-2.3,0-3.45.76-3.45,2.27a2,2,0,0,0,.84,1.71,3.84,3.84,0,0,0,2.33.63A4.81,4.81,0,0,0,32.65,22.55Z"/><path class="cls-1" d="M46.73,26.41a12.34,12.34,0,0,1-3.67-1.5l1.87-4a11.9,11.9,0,0,0,3.13,1.35,13,13,0,0,0,3.6.52c2.38,0,3.56-.59,3.56-1.76a1.25,1.25,0,0,0-1-1.19,14.52,14.52,0,0,0-3-.61,29.09,29.09,0,0,1-3.92-.83,6,6,0,0,1-2.68-1.66,4.69,4.69,0,0,1-1.14-3.38,5.31,5.31,0,0,1,1.07-3.26,6.8,6.8,0,0,1,3.09-2.21,13.21,13.21,0,0,1,4.81-.79,18.75,18.75,0,0,1,4.08.45,11.37,11.37,0,0,1,3.37,1.24l-1.87,4a11.21,11.21,0,0,0-5.58-1.44,5.62,5.62,0,0,0-2.7.51,1.48,1.48,0,0,0-.9,1.29,1.28,1.28,0,0,0,1,1.26,17.47,17.47,0,0,0,3.1.69,32.13,32.13,0,0,1,3.88.84,5.84,5.84,0,0,1,2.63,1.64,4.67,4.67,0,0,1,1.12,3.31,5.14,5.14,0,0,1-1.08,3.21,7,7,0,0,1-3.15,2.18,14.2,14.2,0,0,1-4.92.77A19.06,19.06,0,0,1,46.73,26.41Z"/><path class="cls-1" d="M81.63,9.22q2.2,2.16,2.21,6.4V26.71H78.23V16.49a5.07,5.07,0,0,0-1-3.44,3.68,3.68,0,0,0-2.92-1.13,4.45,4.45,0,0,0-3.38,1.31,5.45,5.45,0,0,0-1.26,3.91v9.57H64V0h5.62V9.36a7.51,7.51,0,0,1,2.7-1.71,9.69,9.69,0,0,1,3.45-.59A8,8,0,0,1,81.63,9.22Z"/><path class="cls-1" d="M97,7.78a10.07,10.07,0,0,1,3.94-.72v5.18c-.62-.05-1-.07-1.26-.07a5.14,5.14,0,0,0-3.78,1.35,5.46,5.46,0,0,0-1.37,4.05v9.14H88.92V7.34h5.36V9.9A6.2,6.2,0,0,1,97,7.78Z"/><path class="cls-2" d="M134.87,9.2Q137,11.35,137,15.62V26.71H131.4V16.49a5.23,5.23,0,0,0-1-3.44,3.32,3.32,0,0,0-2.71-1.13,4,4,0,0,0-3.14,1.27,5.57,5.57,0,0,0-1.15,3.8v9.72h-5.61V16.49q0-4.57-3.68-4.57a4,4,0,0,0-3.09,1.27,5.52,5.52,0,0,0-1.15,3.8v9.72h-5.62V7.34h5.36V9.58A7.2,7.2,0,0,1,112.3,7.7a8.93,8.93,0,0,1,3.44-.64,8.35,8.35,0,0,1,3.71.81,6.56,6.56,0,0,1,2.66,2.35,8,8,0,0,1,3-2.34,9.47,9.47,0,0,1,4-.82A7.8,7.8,0,0,1,134.87,9.2Z"/><path class="cls-2" d="M161.13,18.61H146.48a4.63,4.63,0,0,0,1.87,2.85,6.27,6.27,0,0,0,3.68,1,7.45,7.45,0,0,0,2.68-.45,6.55,6.55,0,0,0,2.18-1.42l3,3.24q-2.73,3.14-8,3.13a12.65,12.65,0,0,1-5.79-1.28,9.35,9.35,0,0,1-3.89-3.54A9.82,9.82,0,0,1,140.83,17a9.88,9.88,0,0,1,1.35-5.13,9.51,9.51,0,0,1,3.71-3.57,10.89,10.89,0,0,1,5.27-1.27,10.76,10.76,0,0,1,5.15,1.22,9,9,0,0,1,3.62,3.51,10.5,10.5,0,0,1,1.31,5.31C161.24,17.17,161.21,17.68,161.13,18.61ZM148,12.38a4.62,4.62,0,0,0-1.58,3H156a4.64,4.64,0,0,0-1.58-2.94,4.76,4.76,0,0,0-3.17-1.1A4.87,4.87,0,0,0,148,12.38Z"/><path class="cls-3" d="M97.24,25.83a2.94,2.94,0,0,1-.88-2.19,2.83,2.83,0,0,1,.88-2.17,3,3,0,0,1,2.16-.83,3,3,0,0,1,2.16.83,2.87,2.87,0,0,1,.88,2.17,3,3,0,0,1-.88,2.19,2.93,2.93,0,0,1-2.16.88A2.9,2.9,0,0,1,97.24,25.83Z"/></g></g></svg>